ply
format ascii 1.0
element vertex 486
property float32 x
property float32 y
property float32 z
element face 912
property list uint8 int32 vertex_indices
end_header
-1.106 3.844 9.073 
-0.3523 0.4402 11.07 
1.028 3.76 9.209 
0.137 -0.5632 10.73 
2.01 4.503 5.887 
0.07813 5.232 6.794 
-0.7266 3.741 3.839 
-2.789 3.179 5.07 
-0.9185 2.402 3.279 
1.445 2.139 3.394 
-3.114 1.498 5.285 
-1.317 -1.269 8.385 
-0.854 -1.319 5.036 
-0.9351 5.347 0.6162 
-0.8184 2.622 3.235 
0.4875 5.529 -0.2241 
3.193 2.756 1.633 
3.213 1.145 -2.568 
-2.25 1.208 2.767 
0.3225 0.8339 3.323 
1.354 -1.725 1.105 
0.1887 1.133 -5.785 
-3.637 2.696 0.3325 
-3.706 0.8936 -0.5452 
-0.4326 -0.8737 -4.095 
-2.994 -0.4858 0.9023 
0.1252 -2.079 -1.51 
2.856 -0.7459 -1.187 
2.32 3.733 8.13 
2.031 3.721 9.095 
2.819 3.567 8.537 
1.994 2.581 9.711 
2.64 2.491 9.542 
3.187 2.528 8.375 
1.628 2.491 7.518 
1.62 3.721 8.274 
0.9868 2.471 8.914 
1.552 2.106 9.414 
2.657 1.774 8.918 
-1.805 3.733 8.13 
-2.094 3.721 9.095 
-1.306 3.567 8.537 
-2.131 2.581 9.711 
-1.485 2.491 9.542 
-0.938 2.528 8.375 
-2.497 2.491 7.518 
-2.505 3.721 8.274 
-3.138 2.471 8.914 
-2.573 2.106 9.414 
-1.469 1.774 8.918 
1.549 3.638 6.803 
1.355 3.638 6.7 
1.424 5.126 6.883 
1.615 5.083 6.981 
1.169 3.638 6.815 
1.237 5.115 6.997 
1.176 3.638 7.035 
1.241 5.061 7.21 
1.369 3.638 7.138 
1.433 5.018 7.308 
1.556 3.638 7.023 
1.62 5.029 7.194 
1.625 6.512 7.421 
1.811 6.429 7.504 
1.437 6.49 7.531 
1.434 6.386 7.724 
1.619 6.304 7.807 
1.808 6.326 7.697 
1.945 7.702 8.276 
2.121 7.585 8.335 
1.754 7.672 8.38 
1.74 7.525 8.542 
1.916 7.408 8.601 
2.107 7.439 8.497 
2.362 8.615 9.391 
2.526 8.473 9.417 
2.168 8.578 9.487 
2.138 8.398 9.608 
2.303 8.255 9.635 
2.497 8.293 9.539 
2.847 9.189 10.69 
2.998 9.03 10.68 
2.649 9.148 10.78 
2.603 8.947 10.85 
2.753 8.788 10.84 
2.95 8.83 10.75 
3.368 9.385 12.08 
3.503 9.22 12.03 
3.167 9.342 12.16 
3.101 9.134 12.18 
3.236 8.97 12.13 
3.438 9.013 12.06 
3.889 9.189 13.48 
4.01 9.03 13.39 
3.684 9.148 13.54 
3.599 8.947 13.51 
3.719 8.788 13.42 
3.925 8.83 13.36 
4.374 8.615 14.77 
4.481 8.473 14.65 
4.165 8.578 14.83 
4.063 8.398 14.76 
4.17 8.255 14.63 
4.379 8.293 14.57 
4.791 7.702 15.89 
4.886 7.585 15.73 
4.579 7.672 15.94 
4.462 7.525 15.82 
4.556 7.408 15.66 
4.769 7.439 15.62 
5.111 6.512 16.74 
5.196 6.429 16.56 
4.896 6.49 16.78 
4.768 6.386 16.64 
4.853 6.304 16.46 
5.068 6.326 16.42 
-1.141 5.126 6.883 
-1.072 3.638 6.7 
-1.266 3.638 6.803 
-1.332 5.083 6.981 
-0.9541 5.115 6.997 
-0.886 3.638 6.815 
-0.9585 5.061 7.21 
-0.8928 3.638 7.035 
-1.15 5.018 7.308 
-1.086 3.638 7.138 
-1.337 5.029 7.194 
-1.272 3.638 7.023 
-1.342 6.512 7.421 
-1.528 6.429 7.504 
-1.154 6.49 7.531 
-1.151 6.386 7.724 
-1.336 6.304 7.807 
-1.525 6.326 7.697 
-1.662 7.702 8.276 
-1.838 7.585 8.335 
-1.471 7.672 8.38 
-1.457 7.525 8.542 
-1.633 7.408 8.601 
-1.824 7.439 8.497 
-2.079 8.615 9.391 
-2.243 8.473 9.417 
-1.885 8.578 9.487 
-1.855 8.398 9.608 
-2.02 8.255 9.635 
-2.214 8.293 9.539 
-2.564 9.189 10.69 
-2.715 9.03 10.68 
-2.366 9.148 10.78 
-2.32 8.947 10.85 
-2.47 8.788 10.84 
-2.667 8.83 10.75 
-3.085 9.385 12.08 
-3.22 9.22 12.03 
-2.884 9.342 12.16 
-2.818 9.134 12.18 
-2.953 8.97 12.13 
-3.155 9.013 12.06 
-3.606 9.189 13.48 
-3.726 9.03 13.39 
-3.4 9.148 13.54 
-3.316 8.947 13.51 
-3.437 8.788 13.42 
-3.642 8.83 13.36 
-4.091 8.615 14.77 
-4.198 8.473 14.65 
-3.882 8.578 14.83 
-3.78 8.398 14.76 
-3.887 8.255 14.63 
-4.096 8.293 14.57 
-4.508 7.702 15.89 
-4.603 7.585 15.73 
-4.296 7.672 15.94 
-4.179 7.525 15.82 
-4.273 7.408 15.66 
-4.485 7.439 15.62 
-4.828 6.512 16.74 
-4.913 6.429 16.56 
-4.613 6.49 16.78 
-4.484 6.386 16.64 
-4.57 6.304 16.46 
-4.784 6.326 16.42 
-1.519 -2.27 2.989 
-1.987 -1.082 3.408 
-2.709 -1.989 3.536 
-1.513 -2.259 2.974 
-2.524 -1.536 2.471 
-4.318 -0.3933 4.187 
-4.692 -0.6204 3.123 
-6.274 0.9227 4.173 
-5.533 1.852 4.043 
-6.084 1.387 3.082 
-6.844 2.279 4.015 
-6.83 1.957 4.012 
-6.886 2.118 3.737 
-7.536 1.346 4.658 
-7.229 0.9683 4.298 
-8.053 1.724 3.821 
-7.747 1.346 3.46 
-9.085 -0.1982 5.078 
-9.347 -0.1982 3.597 
-8.702 -0.7393 4.247 
-10.91 -1.528 5.154 
-10.39 -2.11 4.847 
-11.08 -1.528 4.148 
-10.49 -2.11 4.26 
-11.58 -2.509 4.768 
-11.57 -2.523 4.76 
-11.59 -2.509 4.742 
-11.57 -2.523 4.744 
-12.39 -3.546 5.269 
-11.93 -3.852 5.034 
-12.52 -3.546 4.548 
-12.87 -4.803 5.622 
-12.58 -5.09 4.606 
-13.49 -4.516 4.767 
-13.11 -6.264 5.38 
-14.78 -6.803 5.643 
-14.49 -7.092 4.622 
-15.35 -8.042 5.637 
-14.73 -8.43 5.528 
-15.15 -8.236 4.95 
-15.78 -9.378 5.503 
-15.77 -9.385 5.497 
-15.78 -9.375 5.495 
-15.78 -9.378 5.486 
-15.77 -9.383 5.484 
-1.522 -2.262 -1.24 
-1.519 -2.258 -1.231 
-1.522 -2.262 -1.222 
-1.529 -2.27 -1.222 
-1.529 -2.27 -1.24 
-2.061 -1.082 -0.8906 
-2.428 -1.536 -1.907 
-3.082 -0.4963 -0.5522 
-3.082 -0.4963 -1.91 
-3.759 -1.333 -1.628 
-5.567 0.1257 -0.8323 
-5.665 1.852 -0.8818 
-6.417 0.9227 -0.8818 
-6.041 1.387 -1.924 
-6.95 2.279 -1.137 
-6.937 1.957 -1.326 
-6.943 2.118 -1.418 
-7.378 0.9683 -0.9246 
-8.108 1.724 -0.9246 
-7.743 1.346 -1.84 
-8.797 0.8371 -0.6052 
-9.793 0.269 -1.611 
-8.891 -0.6654 -1.611 
-10.59 -2.11 -0.9326 
-10.57 -0.523 -0.8679 
-11.3 -1.375 -0.9326 
-10.94 -1.742 -1.823 
-11.75 -2.506 -1.223 
-11.73 -2.523 -1.223 
-11.74 -2.514 -1.247 
-12.76 -3.466 -1.017 
-12.14 -3.852 -1.017 
-12.45 -3.659 -1.656 
-13.16 -4.803 -0.6001 
-12.7 -5.09 -1.55 
-13.62 -4.516 -1.55 
-13.36 -6.264 -0.8809 
-15.05 -6.803 -0.9114 
-14.58 -7.092 -1.866 
-15.6 -8.042 -1.016 
-14.98 -8.43 -1.016 
-15.29 -8.236 -1.658 
-16.01 -9.378 -1.222 
-15.99 -9.385 -1.226 
-16.01 -9.375 -1.231 
-16.01 -9.378 -1.24 
-16 -9.383 -1.24 
-1.522 -2.27 -4.918 
-2.105 -1.082 -4.684 
-2.827 -1.989 -4.812 
-1.513 -2.262 -4.935 
-2.29 -1.536 -5.749 
-4.562 -0.3933 -4.75 
-4.55 -0.6204 -5.878 
-6.395 0.9227 -5.432 
-5.655 1.852 -5.302 
-5.844 1.387 -6.393 
-6.877 2.279 -5.776 
-6.863 1.957 -5.773 
-6.821 2.118 -6.051 
-7.747 1.346 -5.408 
-7.335 0.9683 -5.641 
-7.947 1.724 -6.372 
-7.536 1.346 -6.605 
-9.347 -0.1982 -5.543 
-9.085 -0.1982 -7.025 
-8.702 -0.7393 -6.193 
-11.08 -1.528 -6.095 
-10.49 -2.11 -6.206 
-10.91 -1.528 -7.101 
-10.39 -2.11 -6.794 
-11.59 -2.509 -6.689 
-11.57 -2.523 -6.691 
-11.58 -2.509 -6.715 
-11.57 -2.523 -6.707 
-12.52 -3.546 -6.495 
-12.01 -3.852 -6.559 
-12.39 -3.546 -7.217 
-13.09 -4.803 -6.326 
-12.47 -5.09 -7.18 
-13.38 -4.516 -7.341 
-13.24 -6.264 -6.637 
-14.89 -6.803 -6.96 
-14.27 -7.092 -7.819 
-15.42 -8.042 -7.159 
-14.8 -8.43 -7.051 
-15 -8.236 -7.738 
-15.78 -9.378 -7.432 
-15.77 -9.385 -7.434 
-15.78 -9.375 -7.442 
-15.78 -9.378 -7.45 
-15.77 -9.383 -7.448 
1.522 -2.27 -4.918 
1.511 -2.258 -4.926 
1.513 -2.262 -4.935 
2.828 -1.989 -4.812 
2.105 -1.082 -4.684 
2.29 -1.536 -5.749 
4.55 -0.6204 -5.878 
4.562 -0.3933 -4.75 
6.395 0.9227 -5.432 
5.655 1.852 -5.302 
5.844 1.387 -6.393 
6.877 2.279 -5.776 
6.863 1.957 -5.773 
6.821 2.118 -6.051 
7.335 0.9683 -5.641 
7.747 1.346 -5.408 
7.947 1.724 -6.372 
7.536 1.346 -6.605 
9.347 -0.1982 -5.543 
9.086 -0.1982 -7.025 
8.702 -0.7393 -6.193 
11.08 -1.528 -6.095 
10.49 -2.11 -6.206 
10.91 -1.528 -7.101 
10.39 -2.11 -6.794 
11.59 -2.509 -6.689 
11.57 -2.523 -6.691 
11.58 -2.509 -6.715 
11.57 -2.523 -6.707 
12.52 -3.546 -6.495 
12.01 -3.852 -6.559 
12.39 -3.546 -7.217 
12.47 -5.09 -7.18 
13.09 -4.803 -6.326 
13.38 -4.516 -7.341 
13.24 -6.264 -6.637 
14.89 -6.803 -6.96 
14.27 -7.092 -7.819 
15.42 -8.042 -7.159 
14.8 -8.43 -7.051 
15 -8.236 -7.738 
15.78 -9.378 -7.432 
15.77 -9.385 -7.434 
15.78 -9.375 -7.442 
15.78 -9.378 -7.45 
15.77 -9.383 -7.448 
-0.9592 -0.9547 10.35 
0.007813 0.3928 11.6 
-0.7324 1.062 10.63 
0.007813 -1.855 11.37 
0.007813 -2.459 10.63 
0.007813 0.3928 9.662 
-0.3928 1.509 10.63 
0.7327 1.062 10.63 
-0.007813 0.3928 11.6 
0.9595 -0.9547 10.35 
-0.007813 -1.855 11.37 
-0.007813 -2.459 10.63 
-0.007813 0.3928 9.662 
0.3931 1.509 10.63 
1.513 -2.262 2.988 
1.511 -2.258 2.979 
1.516 -2.262 2.97 
1.522 -2.27 2.971 
1.52 -2.27 2.989 
1.987 -1.082 3.408 
2.524 -1.536 2.471 
2.933 -0.4963 3.919 
3.168 -0.4963 2.581 
3.786 -1.333 2.977 
5.429 0.1257 4.074 
5.534 1.852 4.042 
6.274 0.9227 4.173 
6.085 1.387 3.082 
6.863 1.957 3.827 
6.844 2.279 4.015 
6.886 2.118 3.737 
7.229 0.9683 4.298 
7.947 1.724 4.425 
7.747 1.346 3.46 
8.57 0.8371 4.859 
9.726 0.269 4.042 
8.838 -0.6654 3.885 
10.39 -2.11 4.847 
10.37 -0.523 4.909 
11.09 -1.375 4.97 
10.89 -1.742 4.032 
11.59 -2.506 4.763 
11.57 -2.523 4.76 
11.58 -2.514 4.739 
12.55 -3.466 5.142 
11.93 -3.852 5.034 
12.35 -3.659 4.459 
12.58 -5.09 4.606 
12.87 -4.803 5.622 
13.49 -4.516 4.767 
13.11 -6.264 5.38 
14.78 -6.803 5.643 
14.49 -7.092 4.622 
15.35 -8.042 5.637 
14.73 -8.43 5.528 
15.15 -8.236 4.95 
15.78 -9.378 5.503 
15.77 -9.385 5.497 
15.78 -9.375 5.495 
15.78 -9.378 5.486 
15.77 -9.383 5.484 
1.529 -2.27 -1.222 
1.519 -2.258 -1.231 
1.522 -2.262 -1.24 
2.795 -1.989 -0.8906 
2.062 -1.082 -0.8906 
2.428 -1.536 -1.907 
4.677 -0.6204 -1.642 
4.493 -0.3933 -0.5283 
6.417 0.9227 -0.8818 
5.665 1.852 -0.8818 
6.041 1.387 -1.924 
6.951 2.279 -1.137 
6.937 1.957 -1.137 
6.944 2.118 -1.418 
7.379 0.9683 -0.9246 
7.743 1.346 -0.623 
8.108 1.724 -1.538 
7.743 1.346 -1.84 
9.343 -0.1982 -0.4792 
9.343 -0.1982 -1.983 
8.82 -0.7393 -1.231 
11.15 -1.528 -0.7207 
10.59 -2.11 -0.9326 
11.15 -1.528 -1.742 
10.59 -2.11 -1.53 
11.75 -2.509 -1.218 
11.73 -2.523 -1.223 
11.75 -2.509 -1.245 
11.73 -2.523 -1.239 
12.63 -3.546 -0.8647 
12.14 -3.852 -1.017 
12.63 -3.546 -1.598 
12.7 -5.09 -1.55 
13.16 -4.803 -0.6001 
13.62 -4.516 -1.55 
13.36 -6.264 -0.8804 
15.05 -6.803 -0.9111 
14.58 -7.092 -1.866 
15.6 -8.042 -1.016 
14.98 -8.43 -1.016 
15.29 -8.236 -1.658 
16.01 -9.378 -1.222 
15.99 -9.385 -1.226 
16.01 -9.375 -1.231 
16.01 -9.378 -1.24 
16 -9.383 -1.24 
-0.7932 4.462 -7.734 
-0.3843 1.974 -5.495 
1.95 3.241 -7.348 
1.167 0.6428 -6.109 
3.808 0.1871 -9.572 
3.644 1.688 -11.88 
0.07617 4.961 -10.12 
3.28 -0.5704 -14.15 
0.2488 -1.848 -16.78 
-0.9744 -2.686 -16.57 
0.7307 -3.159 -16.47 
-2.678 2.963 -8.185 
-2.616 -2.779 -12.24 
-1.159 -1.533 -8.922 
3 0 1 2 
3 1 3 2 
3 2 4 5 
3 4 6 5 
3 5 6 7 
3 7 6 8 
3 2 3 9 
3 2 9 4 
3 4 9 6 
3 6 9 8 
3 5 0 2 
3 5 7 0 
3 8 10 7 
3 7 10 0 
3 0 10 1 
3 1 10 11 
3 1 11 3 
3 10 12 11 
3 11 12 3 
3 3 12 9 
3 10 8 12 
3 12 8 9 
3 13 14 15 
3 15 14 16 
3 17 15 16 
3 18 19 14 
3 14 19 16 
3 19 20 16 
3 15 17 21 
3 15 21 13 
3 14 13 18 
3 21 22 13 
3 13 22 18 
3 21 23 22 
3 21 24 23 
3 23 25 22 
3 22 25 18 
3 18 25 20 
3 18 20 19 
3 23 26 25 
3 25 26 20 
3 23 24 26 
3 26 24 27 
3 26 27 20 
3 20 27 16 
3 24 21 27 
3 27 21 17 
3 27 17 16 
3 28 29 30 
3 31 32 29 
3 29 32 30 
3 32 33 30 
3 30 33 28 
3 28 33 34 
3 28 34 35 
3 35 34 36 
3 28 35 29 
3 35 36 29 
3 29 36 31 
3 36 37 31 
3 31 37 32 
3 37 38 32 
3 32 38 33 
3 36 34 37 
3 37 34 38 
3 38 34 33 
3 39 40 41 
3 42 43 40 
3 40 43 41 
3 43 44 41 
3 41 44 39 
3 39 44 45 
3 39 45 46 
3 46 45 47 
3 39 46 40 
3 46 47 40 
3 40 47 42 
3 47 48 42 
3 42 48 43 
3 48 49 43 
3 43 49 44 
3 47 45 48 
3 48 45 49 
3 49 45 44 
3 50 51 52 
3 50 52 53 
3 51 54 55 
3 51 55 52 
3 54 56 57 
3 54 57 55 
3 56 58 59 
3 56 59 57 
3 58 60 61 
3 58 61 59 
3 60 50 53 
3 60 53 61 
3 53 52 62 
3 53 62 63 
3 52 55 64 
3 52 64 62 
3 55 57 65 
3 55 65 64 
3 57 59 66 
3 57 66 65 
3 59 61 67 
3 59 67 66 
3 61 53 63 
3 61 63 67 
3 63 62 68 
3 63 68 69 
3 62 64 70 
3 62 70 68 
3 64 65 71 
3 64 71 70 
3 65 66 72 
3 65 72 71 
3 66 67 73 
3 66 73 72 
3 67 63 69 
3 67 69 73 
3 69 68 74 
3 69 74 75 
3 68 70 76 
3 68 76 74 
3 70 71 77 
3 70 77 76 
3 71 72 78 
3 71 78 77 
3 72 73 79 
3 72 79 78 
3 73 69 75 
3 73 75 79 
3 75 74 80 
3 75 80 81 
3 74 76 82 
3 74 82 80 
3 76 77 83 
3 76 83 82 
3 77 78 84 
3 77 84 83 
3 78 79 85 
3 78 85 84 
3 79 75 81 
3 79 81 85 
3 81 80 86 
3 81 86 87 
3 80 82 88 
3 80 88 86 
3 82 83 89 
3 82 89 88 
3 83 84 90 
3 83 90 89 
3 84 85 91 
3 84 91 90 
3 85 81 87 
3 85 87 91 
3 87 86 92 
3 87 92 93 
3 86 88 94 
3 86 94 92 
3 88 89 95 
3 88 95 94 
3 89 90 96 
3 89 96 95 
3 90 91 97 
3 90 97 96 
3 91 87 93 
3 91 93 97 
3 93 92 98 
3 93 98 99 
3 92 94 100 
3 92 100 98 
3 94 95 101 
3 94 101 100 
3 95 96 102 
3 95 102 101 
3 96 97 103 
3 96 103 102 
3 97 93 99 
3 97 99 103 
3 99 98 104 
3 99 104 105 
3 98 100 106 
3 98 106 104 
3 100 101 107 
3 100 107 106 
3 101 102 108 
3 101 108 107 
3 102 103 109 
3 102 109 108 
3 103 99 105 
3 103 105 109 
3 105 104 110 
3 105 110 111 
3 104 106 112 
3 104 112 110 
3 106 107 113 
3 106 113 112 
3 107 108 114 
3 107 114 113 
3 108 109 115 
3 108 115 114 
3 109 105 111 
3 109 111 115 
3 54 51 50 
3 56 54 50 
3 58 56 50 
3 60 58 50 
3 112 113 110 
3 113 114 110 
3 114 115 110 
3 115 111 110 
3 116 117 118 
3 119 116 118 
3 120 121 117 
3 116 120 117 
3 122 123 121 
3 120 122 121 
3 124 125 123 
3 122 124 123 
3 126 127 125 
3 124 126 125 
3 119 118 127 
3 126 119 127 
3 128 116 119 
3 129 128 119 
3 130 120 116 
3 128 130 116 
3 131 122 120 
3 130 131 120 
3 132 124 122 
3 131 132 122 
3 133 126 124 
3 132 133 124 
3 129 119 126 
3 133 129 126 
3 134 128 129 
3 135 134 129 
3 136 130 128 
3 134 136 128 
3 137 131 130 
3 136 137 130 
3 138 132 131 
3 137 138 131 
3 139 133 132 
3 138 139 132 
3 135 129 133 
3 139 135 133 
3 140 134 135 
3 141 140 135 
3 142 136 134 
3 140 142 134 
3 143 137 136 
3 142 143 136 
3 144 138 137 
3 143 144 137 
3 145 139 138 
3 144 145 138 
3 141 135 139 
3 145 141 139 
3 146 140 141 
3 147 146 141 
3 148 142 140 
3 146 148 140 
3 149 143 142 
3 148 149 142 
3 150 144 143 
3 149 150 143 
3 151 145 144 
3 150 151 144 
3 147 141 145 
3 151 147 145 
3 152 146 147 
3 153 152 147 
3 154 148 146 
3 152 154 146 
3 155 149 148 
3 154 155 148 
3 156 150 149 
3 155 156 149 
3 157 151 150 
3 156 157 150 
3 153 147 151 
3 157 153 151 
3 158 152 153 
3 159 158 153 
3 160 154 152 
3 158 160 152 
3 161 155 154 
3 160 161 154 
3 162 156 155 
3 161 162 155 
3 163 157 156 
3 162 163 156 
3 159 153 157 
3 163 159 157 
3 164 158 159 
3 165 164 159 
3 166 160 158 
3 164 166 158 
3 167 161 160 
3 166 167 160 
3 168 162 161 
3 167 168 161 
3 169 163 162 
3 168 169 162 
3 165 159 163 
3 169 165 163 
3 170 164 165 
3 171 170 165 
3 172 166 164 
3 170 172 164 
3 173 167 166 
3 172 173 166 
3 174 168 167 
3 173 174 167 
3 175 169 168 
3 174 175 168 
3 171 165 169 
3 175 171 169 
3 176 170 171 
3 177 176 171 
3 178 172 170 
3 176 178 170 
3 179 173 172 
3 178 179 172 
3 180 174 173 
3 179 180 173 
3 181 175 174 
3 180 181 174 
3 177 171 175 
3 181 177 175 
3 118 117 121 
3 118 121 123 
3 118 123 125 
3 118 125 127 
3 176 179 178 
3 176 180 179 
3 176 181 180 
3 176 177 181 
3 182 183 184 
3 182 185 183 
3 185 186 183 
3 185 182 186 
3 182 184 186 
3 184 187 188 
3 184 183 187 
3 186 184 188 
3 188 187 189 
3 187 190 189 
3 187 183 190 
3 183 191 190 
3 183 186 191 
3 186 188 191 
3 189 190 192 
3 189 192 193 
3 190 191 194 
3 190 194 192 
3 191 188 194 
3 188 189 193 
3 188 193 194 
3 193 195 196 
3 193 192 195 
3 192 197 195 
3 192 194 197 
3 194 198 197 
3 194 193 196 
3 195 199 196 
3 198 200 197 
3 194 196 201 
3 194 201 198 
3 196 199 201 
3 195 197 199 
3 198 201 200 
3 201 199 202 
3 201 202 203 
3 199 197 204 
3 199 204 202 
3 197 200 204 
3 200 205 204 
3 200 201 203 
3 200 203 205 
3 203 202 206 
3 203 206 207 
3 202 204 208 
3 202 208 206 
3 204 205 209 
3 204 209 208 
3 205 203 207 
3 205 207 209 
3 207 206 210 
3 207 210 211 
3 206 208 212 
3 206 212 210 
3 208 209 212 
3 209 207 211 
3 211 213 214 
3 211 210 213 
3 210 215 213 
3 210 212 215 
3 212 214 215 
3 212 209 214 
3 209 211 214 
3 214 213 216 
3 216 213 217 
3 213 215 217 
3 215 218 217 
3 215 214 218 
3 216 217 219 
3 216 219 220 
3 217 218 221 
3 217 221 219 
3 218 214 221 
3 214 216 220 
3 220 219 222 
3 220 222 223 
3 219 224 222 
3 219 221 224 
3 221 225 224 
3 221 226 225 
3 221 214 226 
3 214 220 223 
3 214 223 226 
3 222 224 225 
3 225 226 223 
3 223 222 225 
3 227 228 229 
3 230 231 227 
3 227 229 230 
3 230 229 232 
3 229 228 232 
3 228 227 233 
3 228 233 232 
3 227 231 233 
3 230 232 234 
3 232 233 235 
3 233 231 236 
3 231 230 236 
3 230 234 237 
3 232 235 234 
3 233 236 235 
3 236 230 237 
3 237 234 238 
3 237 238 239 
3 234 235 238 
3 235 240 238 
3 235 236 240 
3 236 237 239 
3 236 239 240 
3 239 241 242 
3 239 238 241 
3 238 240 243 
3 238 243 241 
3 240 242 243 
3 240 239 242 
3 242 241 244 
3 241 245 244 
3 241 243 246 
3 241 246 245 
3 243 242 246 
3 244 245 247 
3 245 246 248 
3 246 242 249 
3 242 244 249 
3 249 244 250 
3 244 247 250 
3 245 248 247 
3 246 249 248 
3 250 247 251 
3 247 248 251 
3 250 251 252 
3 251 248 253 
3 251 253 252 
3 248 249 253 
3 250 252 254 
3 250 254 255 
3 252 253 256 
3 252 256 254 
3 253 249 256 
3 249 250 255 
3 249 255 256 
3 255 254 257 
3 255 257 258 
3 254 256 259 
3 254 259 257 
3 256 255 258 
3 258 260 261 
3 258 257 260 
3 257 262 260 
3 257 259 262 
3 259 261 262 
3 259 256 261 
3 256 258 261 
3 261 260 263 
3 263 260 264 
3 260 262 264 
3 262 265 264 
3 262 261 265 
3 263 264 266 
3 263 266 267 
3 264 265 268 
3 264 268 266 
3 265 261 268 
3 261 263 267 
3 267 266 269 
3 267 269 270 
3 266 271 269 
3 266 268 271 
3 268 272 271 
3 268 273 272 
3 268 261 273 
3 261 267 270 
3 261 270 273 
3 269 271 272 
3 272 273 270 
3 270 269 272 
3 274 275 276 
3 274 277 275 
3 277 278 275 
3 277 276 278 
3 277 274 276 
3 276 279 280 
3 276 275 279 
3 278 276 280 
3 280 279 281 
3 279 282 281 
3 279 275 282 
3 275 283 282 
3 275 278 283 
3 278 280 283 
3 281 282 284 
3 281 284 285 
3 282 283 286 
3 282 286 284 
3 283 280 286 
3 280 281 285 
3 280 285 286 
3 285 287 288 
3 285 284 287 
3 284 289 287 
3 284 286 289 
3 286 290 289 
3 286 285 288 
3 287 291 288 
3 290 292 289 
3 286 288 293 
3 286 293 290 
3 288 291 293 
3 287 289 291 
3 290 293 292 
3 293 291 294 
3 293 294 295 
3 291 289 296 
3 291 296 294 
3 289 292 296 
3 292 297 296 
3 292 293 295 
3 292 295 297 
3 295 294 298 
3 295 298 299 
3 294 296 300 
3 294 300 298 
3 296 297 301 
3 296 301 300 
3 297 295 299 
3 297 299 301 
3 299 298 302 
3 299 302 303 
3 298 300 304 
3 298 304 302 
3 300 301 304 
3 301 299 303 
3 303 305 306 
3 303 302 305 
3 302 307 305 
3 302 304 307 
3 304 306 307 
3 304 301 306 
3 301 303 306 
3 306 305 308 
3 308 305 309 
3 305 307 309 
3 307 310 309 
3 307 306 310 
3 308 309 311 
3 308 311 312 
3 309 310 313 
3 309 313 311 
3 310 306 313 
3 306 308 312 
3 312 311 314 
3 312 314 315 
3 311 316 314 
3 311 313 316 
3 313 317 316 
3 313 318 317 
3 313 306 318 
3 306 312 315 
3 306 315 318 
3 314 316 317 
3 317 318 315 
3 315 314 317 
3 319 320 321 
3 322 323 319 
3 323 320 319 
3 324 321 320 
3 323 324 320 
3 324 322 321 
3 322 319 321 
3 325 326 322 
3 326 323 322 
3 325 322 324 
3 327 326 325 
3 327 328 326 
3 328 323 326 
3 328 329 323 
3 329 324 323 
3 329 325 324 
3 330 328 327 
3 331 330 327 
3 332 329 328 
3 330 332 328 
3 332 325 329 
3 331 327 325 
3 332 331 325 
3 333 334 331 
3 334 330 331 
3 334 335 330 
3 335 332 330 
3 335 336 332 
3 333 331 332 
3 333 337 334 
3 335 338 336 
3 339 333 332 
3 336 339 332 
3 339 337 333 
3 337 335 334 
3 338 339 336 
3 340 337 339 
3 341 340 339 
3 342 335 337 
3 340 342 337 
3 342 338 335 
3 342 343 338 
3 341 339 338 
3 343 341 338 
3 344 340 341 
3 345 344 341 
3 346 342 340 
3 344 346 340 
3 347 343 342 
3 346 347 342 
3 345 341 343 
3 347 345 343 
3 348 344 345 
3 349 348 345 
3 350 346 344 
3 348 350 344 
3 350 347 346 
3 349 345 347 
3 351 352 349 
3 352 348 349 
3 352 353 348 
3 353 350 348 
3 353 351 350 
3 351 347 350 
3 351 349 347 
3 354 352 351 
3 355 352 354 
3 355 353 352 
3 355 356 353 
3 356 351 353 
3 357 355 354 
3 358 357 354 
3 359 356 355 
3 357 359 355 
3 359 351 356 
3 358 354 351 
3 360 357 358 
3 361 360 358 
3 360 362 357 
3 362 359 357 
3 362 363 359 
3 363 364 359 
3 364 351 359 
3 361 358 351 
3 364 361 351 
3 363 362 360 
3 361 364 363 
3 363 360 361 
3 365 366 367 
3 365 368 366 
3 368 365 369 
3 365 370 369 
3 365 367 370 
3 367 371 370 
3 367 366 371 
3 368 369 370 
3 368 370 371 
3 368 371 366 
3 372 373 374 
3 373 375 374 
3 376 374 375 
3 376 377 374 
3 377 372 374 
3 377 378 372 
3 378 373 372 
3 377 376 375 
3 378 377 375 
3 373 378 375 
3 379 380 381 
3 381 382 383 
3 383 379 381 
3 384 379 383 
3 384 380 379 
3 384 385 380 
3 385 381 380 
3 385 382 381 
3 386 384 383 
3 387 385 384 
3 388 382 385 
3 388 383 382 
3 389 386 383 
3 386 387 384 
3 387 388 385 
3 389 383 388 
3 390 386 389 
3 391 390 389 
3 390 387 386 
3 390 392 387 
3 392 388 387 
3 391 389 388 
3 392 391 388 
3 393 394 391 
3 394 390 391 
3 395 392 390 
3 394 395 390 
3 395 393 392 
3 393 391 392 
3 396 394 393 
3 396 397 394 
3 398 395 394 
3 397 398 394 
3 398 393 395 
3 399 397 396 
3 400 398 397 
3 401 393 398 
3 401 396 393 
3 402 396 401 
3 402 399 396 
3 399 400 397 
3 400 401 398 
3 403 399 402 
3 403 400 399 
3 404 403 402 
3 405 400 403 
3 404 405 403 
3 405 401 400 
3 406 404 402 
3 407 406 402 
3 408 405 404 
3 406 408 404 
3 408 401 405 
3 407 402 401 
3 408 407 401 
3 409 406 407 
3 410 409 407 
3 411 408 406 
3 409 411 406 
3 410 407 408 
3 412 413 410 
3 413 409 410 
3 413 414 409 
3 414 411 409 
3 414 412 411 
3 412 408 411 
3 412 410 408 
3 415 413 412 
3 416 413 415 
3 416 414 413 
3 416 417 414 
3 417 412 414 
3 418 416 415 
3 419 418 415 
3 420 417 416 
3 418 420 416 
3 420 412 417 
3 419 415 412 
3 421 418 419 
3 422 421 419 
3 421 423 418 
3 423 420 418 
3 423 424 420 
3 424 425 420 
3 425 412 420 
3 422 419 412 
3 425 422 412 
3 424 423 421 
3 422 425 424 
3 424 421 422 
3 426 427 428 
3 429 430 426 
3 430 427 426 
3 431 428 427 
3 430 431 427 
3 431 429 428 
3 429 426 428 
3 432 433 429 
3 433 430 429 
3 432 429 431 
3 434 433 432 
3 434 435 433 
3 435 430 433 
3 435 436 430 
3 436 431 430 
3 436 432 431 
3 437 435 434 
3 438 437 434 
3 439 436 435 
3 437 439 435 
3 439 432 436 
3 438 434 432 
3 439 438 432 
3 440 441 438 
3 441 437 438 
3 441 442 437 
3 442 439 437 
3 442 443 439 
3 440 438 439 
3 440 444 441 
3 442 445 443 
3 446 440 439 
3 443 446 439 
3 446 444 440 
3 444 442 441 
3 445 446 443 
3 447 444 446 
3 448 447 446 
3 449 442 444 
3 447 449 444 
3 449 445 442 
3 449 450 445 
3 448 446 445 
3 450 448 445 
3 451 447 448 
3 452 451 448 
3 453 449 447 
3 451 453 447 
3 454 450 449 
3 453 454 449 
3 452 448 450 
3 454 452 450 
3 455 451 452 
3 456 455 452 
3 457 453 451 
3 455 457 451 
3 457 454 453 
3 456 452 454 
3 458 459 456 
3 459 455 456 
3 459 460 455 
3 460 457 455 
3 460 458 457 
3 458 454 457 
3 458 456 454 
3 461 459 458 
3 462 459 461 
3 462 460 459 
3 462 463 460 
3 463 458 460 
3 464 462 461 
3 465 464 461 
3 466 463 462 
3 464 466 462 
3 466 458 463 
3 465 461 458 
3 467 464 465 
3 468 467 465 
3 467 469 464 
3 469 466 464 
3 469 470 466 
3 470 471 466 
3 471 458 466 
3 468 465 458 
3 471 468 458 
3 470 469 467 
3 468 471 470 
3 470 467 468 
3 472 473 474 
3 473 475 474 
3 475 476 474 
3 474 476 477 
3 474 478 472 
3 474 477 478 
3 477 476 479 
3 477 479 480 
3 477 480 478 
3 478 480 481 
3 479 482 480 
3 480 482 481 
3 478 483 472 
3 472 483 473 
3 478 481 483 
3 483 481 484 
3 483 484 473 
3 484 485 473 
3 473 485 475 
3 475 485 476 
3 484 481 482 
3 484 482 485 
3 485 482 476 
3 482 479 476 

